<svg width="65" height="64" viewBox="0 0 65 64" fill="none" xmlns="http://www.w3.org/2000/svg">
<g clip-path="url(#clip0_207_1437)">
<path d="M29.3 40.5356H35.7C36.2909 40.5356 36.7667 41.0113 36.7667 41.6022C36.7667 42.1932 36.2909 42.6689 35.7 42.6689H29.3C28.7091 42.6689 28.2333 42.1932 28.2333 41.6022C28.2333 41.0113 28.7091 40.5356 29.3 40.5356ZM46.3667 40.5356H52.7667C53.3576 40.5356 53.8333 41.0113 53.8333 41.6022C53.8333 42.1932 53.3576 42.6689 52.7667 42.6689H46.3667C45.7757 42.6689 45.3 42.1932 45.3 41.6022C45.3 41.0113 45.7757 40.5356 46.3667 40.5356ZM12.2333 40.5356H18.6333C19.2243 40.5356 19.7 41.0113 19.7 41.6022C19.7 42.1932 19.2243 42.6689 18.6333 42.6689H12.2333C11.6424 42.6689 11.1667 42.1932 11.1667 41.6022C11.1667 41.0113 11.6424 40.5356 12.2333 40.5356ZM29.3 27.7356H35.7C36.2909 27.7356 36.7667 28.2113 36.7667 28.8022C36.7667 29.3932 36.2909 29.8689 35.7 29.8689H29.3C28.7091 29.8689 28.2333 29.3932 28.2333 28.8022C28.2333 28.2113 28.7091 27.7356 29.3 27.7356ZM46.3667 27.7356H52.7667C53.3576 27.7356 53.8333 28.2113 53.8333 28.8022C53.8333 29.3932 53.3576 29.8689 52.7667 29.8689H46.3667C45.7757 29.8689 45.3 29.3932 45.3 28.8022C45.3 28.2113 45.7757 27.7356 46.3667 27.7356ZM12.2333 27.7356H18.6333C19.2243 27.7356 19.7 28.2113 19.7 28.8022C19.7 29.3932 19.2243 29.8689 18.6333 29.8689H12.2333C11.6424 29.8689 11.1667 29.3932 11.1667 28.8022C11.1667 28.2113 11.6424 27.7356 12.2333 27.7356ZM50.6333 6.40222C51.2243 6.40222 51.7 6.87796 51.7 7.46889V16.0022C51.7 16.5932 51.2243 17.0689 50.6333 17.0689C50.0424 17.0689 49.5667 16.5932 49.5667 16.0022V7.46889C49.5667 6.87796 50.0424 6.40222 50.6333 6.40222ZM14.3667 6.40222C14.9576 6.40222 15.4333 6.87796 15.4333 7.46889V16.0022C15.4333 16.5932 14.9576 17.0689 14.3667 17.0689C13.7757 17.0689 13.3 16.5932 13.3 16.0022V7.46889C13.3 6.87796 13.7757 6.40222 14.3667 6.40222ZM3.7 10.6689C1.9464 10.6689 0.5 12.1153 0.5 13.8689V54.4022C0.5 56.1558 1.9464 57.6022 3.7 57.6022H61.3C63.0536 57.6022 64.5 56.1558 64.5 54.4022V13.8689C64.5 12.1153 63.0536 10.6689 61.3 10.6689H54.9C53.5005 10.6689 53.4835 12.8022 54.9 12.8022H61.3C61.9101 12.8022 62.3667 13.2588 62.3667 13.8689V54.4022C62.3667 55.0124 61.9101 55.4689 61.3 55.4689H3.7C3.08987 55.4689 2.63333 55.0124 2.63333 54.4022V13.8689C2.63333 13.2588 3.08987 12.8022 3.7 12.8022H10.1C11.5336 12.8022 11.508 10.6689 10.1 10.6689H3.7ZM18.6333 10.6689C17.2467 10.6689 17.2253 12.8022 18.6333 12.8022H46.3667C47.7661 12.8022 47.7917 10.6689 46.3667 10.6689H18.6333Z" fill="white"/>
</g>
<defs>
<clipPath id="clip0_207_1437">
<rect width="64" height="64" fill="white" transform="translate(0.5 0.00219727)"/>
</clipPath>
</defs>
</svg>
