<svg width="64" height="62" viewBox="0 0 64 62" fill="none" xmlns="http://www.w3.org/2000/svg">
<path d="M11.7333 10.6688C10.336 10.6688 10.3253 12.7225 11.7333 12.7022H58.6667C59.2768 12.7022 59.7333 13.1373 59.7333 13.7188V40.1522C59.7333 41.4942 61.8667 41.4942 61.8667 40.1522V13.7188C61.8667 12.0474 60.4203 10.6688 58.6667 10.6688H11.7333ZM7.46667 14.7355C6.07147 14.7355 6.07147 16.7688 7.46667 16.7688H54.4C55.0101 16.7688 55.4667 17.204 55.4667 17.7855V44.2188C55.4667 45.571 57.6213 45.5608 57.6 44.2188V17.7855C57.6 16.1141 56.1536 14.7355 54.4 14.7355H7.46667ZM3.2 18.8022C1.4464 18.8022 0 20.1808 0 21.8522V46.2522C0 47.9236 1.4464 49.3022 3.2 49.3022H50.1333C51.8869 49.3022 53.3333 47.9236 53.3333 46.2522V21.8522C53.3333 20.1808 51.8869 18.8022 50.1333 18.8022H3.2ZM3.2 20.8355H50.1333C50.7435 20.8355 51.2 21.2706 51.2 21.8522V46.2522C51.2 46.8337 50.7435 47.2688 50.1333 47.2688H3.2C2.58987 47.2688 2.13333 46.8337 2.13333 46.2522V21.8522C2.13333 21.2706 2.58987 20.8355 3.2 20.8355ZM5.33333 22.8688C4.74453 22.8688 4.26667 23.3243 4.26667 23.8855V27.9522C4.26667 29.3186 6.4 29.286 6.4 27.9522V24.9022H9.6C11.0336 24.9022 10.9995 22.8688 9.6 22.8688H5.33333ZM26.6667 22.8688C20.1984 22.8688 14.9333 27.8871 14.9333 34.0522C14.9333 40.2172 20.1984 45.2355 26.6667 45.2355C33.1349 45.2355 38.4 40.2172 38.4 34.0522C38.4 27.8871 33.1349 22.8688 26.6667 22.8688ZM43.7333 22.8688C42.3339 22.8688 42.2997 24.9022 43.7333 24.9022H46.9333V27.9522C46.9333 29.286 49.0667 29.3186 49.0667 27.9522V23.8855C49.0667 23.3243 48.5888 22.8688 48 22.8688H43.7333ZM26.6667 24.9022C31.9787 24.9022 36.2667 28.9892 36.2667 34.0522C36.2667 39.1152 31.9787 43.2022 26.6667 43.2022C21.3547 43.2022 17.0667 39.1152 17.0667 34.0522C17.0667 28.9892 21.3547 24.9022 26.6667 24.9022ZM26.6667 26.9355C26.0757 26.9355 25.6 27.3889 25.6 27.9522V29.16C24.3669 29.587 23.4667 30.7053 23.4667 32.0188C23.4667 33.6862 24.9173 35.0688 26.6667 35.0688C27.264 35.0688 27.7333 35.4999 27.7333 36.0855C27.7333 36.6711 27.264 37.1022 26.6667 37.1022H24.5333C23.8123 37.092 23.4667 37.6064 23.4667 38.1188C23.4667 38.6312 23.8123 39.1457 24.5333 39.1355H25.6V40.1522C25.6 40.7154 26.0757 41.1688 26.6667 41.1688C27.2576 41.1688 27.7333 40.7154 27.7333 40.1522V38.9444C28.9664 38.5174 29.8667 37.399 29.8667 36.0855C29.8667 34.4182 28.416 33.0355 26.6667 33.0355C26.0693 33.0355 25.6 32.6044 25.6 32.0188C25.6 31.4332 26.0693 31.0022 26.6667 31.0022H28.8C29.5211 31.0123 29.8667 30.4979 29.8667 29.9855C29.8667 29.4731 29.5211 28.9587 28.8 28.9688H27.7333V27.9522C27.7333 27.3889 27.2576 26.9355 26.6667 26.9355ZM5.33333 39.1396C4.8 39.1355 4.26667 39.469 4.26667 40.1522V44.2188C4.26667 44.78 4.74453 45.2355 5.33333 45.2355H9.6C10.9995 45.2355 11.0336 43.2022 9.6 43.2022H6.4V40.1522C6.4 39.4852 5.86667 39.1436 5.33333 39.1396ZM48 39.1396C47.4667 39.1436 46.9333 39.4852 46.9333 40.1522V43.2022H43.7333C42.2997 43.2022 42.3339 45.2355 43.7333 45.2355H48C48.5888 45.2355 49.0667 44.78 49.0667 44.2188V40.1522C49.0667 39.469 48.5333 39.1355 48 39.1396Z" fill="white"/>
</svg>
