<svg width="271" height="48" viewBox="0 0 271 48" fill="none" xmlns="http://www.w3.org/2000/svg">
<path d="M6.66171 6.62526V26.5733H1.27734V6.62526H6.66171ZM25.3139 6.62526H30.6982V19.4045C30.6982 20.924 30.3367 22.2389 29.6136 23.3493C28.897 24.4532 27.8963 25.3071 26.6116 25.911C25.3268 26.5083 23.8355 26.8071 22.1375 26.8071C20.4266 26.8071 18.9288 26.5083 17.644 25.911C16.3593 25.3071 15.3586 24.4532 14.642 23.3493C13.9319 22.2389 13.5767 20.924 13.5767 19.4045V6.62526H18.9611V18.9369C18.9611 19.5538 19.0967 20.1057 19.3679 20.5928C19.639 21.0733 20.0134 21.4499 20.4912 21.7227C20.9754 21.9954 21.5242 22.1318 22.1375 22.1318C22.7572 22.1318 23.3061 21.9954 23.7838 21.7227C24.2616 21.4499 24.636 21.0733 24.9072 20.5928C25.1783 20.1057 25.3139 19.5538 25.3139 18.9369V6.62526ZM48.3118 12.859C48.2601 12.2097 48.018 11.7032 47.5855 11.3396C47.1594 10.9759 46.5106 10.7941 45.6389 10.7941C45.0837 10.7941 44.6286 10.8623 44.2735 10.9986C43.9249 11.1285 43.6666 11.3071 43.4988 11.5343C43.3309 11.7616 43.2437 12.0213 43.2374 12.3135C43.2244 12.5538 43.2663 12.7713 43.3632 12.9662C43.4665 13.1545 43.6279 13.3266 43.8474 13.4824C44.0669 13.6317 44.3478 13.7681 44.6899 13.8915C45.0321 14.0149 45.4388 14.1253 45.9101 14.2227L47.537 14.5733C48.6346 14.8071 49.574 15.1155 50.3551 15.4986C51.1363 15.8817 51.7755 16.333 52.2726 16.8525C52.7697 17.3655 53.1345 17.9434 53.3669 18.5863C53.6057 19.2291 53.7285 19.9305 53.7349 20.6902C53.7285 22.0019 53.4024 23.1123 52.7568 24.0213C52.1111 24.9304 51.188 25.6221 49.9871 26.0961C48.7928 26.5701 47.3563 26.8071 45.6777 26.8071C43.954 26.8071 42.4497 26.5506 41.1649 26.0376C39.8866 25.5246 38.8924 24.7357 38.1822 23.6707C37.4785 22.5993 37.1234 21.2292 37.1169 19.5603H42.2301C42.2624 20.1707 42.4141 20.6837 42.6853 21.0993C42.9565 21.5149 43.3374 21.8298 43.828 22.0441C44.3252 22.2584 44.9159 22.3655 45.6002 22.3655C46.1748 22.3655 46.6558 22.2941 47.0432 22.1512C47.4305 22.0083 47.7243 21.8103 47.9245 21.5571C48.1246 21.3039 48.2278 21.0149 48.2343 20.6902C48.2278 20.385 48.1278 20.1188 47.9341 19.8915C47.7469 19.6577 47.437 19.4499 47.0044 19.2681C46.5718 19.0798 45.9876 18.9045 45.2516 18.7421L43.276 18.3135C41.52 17.9305 40.1352 17.2909 39.1216 16.3947C38.1144 15.4922 37.6141 14.2617 37.6205 12.7032C37.6141 11.4369 37.9498 10.3298 38.6277 9.38178C39.312 8.42721 40.2578 7.68371 41.4651 7.15124C42.6789 6.61878 44.0701 6.35254 45.6389 6.35254C47.2401 6.35254 48.6249 6.62202 49.7934 7.16098C50.962 7.69994 51.8626 8.45968 52.4953 9.44023C53.1345 10.4142 53.4573 11.5539 53.4638 12.859H48.3118ZM78.6623 14.1057H73.2005C73.1618 13.6512 73.0585 13.2389 72.8906 12.8688C72.7292 12.4986 72.5033 12.1804 72.2127 11.9142C71.9287 11.6415 71.5833 11.4337 71.1765 11.2909C70.7698 11.1415 70.3082 11.0668 69.7917 11.0668C68.8878 11.0668 68.1228 11.2876 67.4966 11.7291C66.8768 12.1707 66.4055 12.8038 66.0827 13.6285C65.7663 14.4531 65.6081 15.4435 65.6081 16.5993C65.6081 17.8201 65.7696 18.8428 66.0924 19.6675C66.4217 20.4856 66.8962 21.1025 67.516 21.5181C68.1358 21.9272 68.8814 22.1318 69.753 22.1318C70.2501 22.1318 70.6955 22.0701 71.0894 21.9467C71.4832 21.8169 71.8254 21.6317 72.1159 21.3915C72.4064 21.1512 72.642 20.8623 72.8229 20.5246C73.01 20.1805 73.136 19.7941 73.2005 19.3655L78.6623 19.4045C78.5978 20.2486 78.3622 21.109 77.9554 21.9856C77.5487 22.8558 76.9709 23.661 76.222 24.4012C75.4795 25.135 74.5595 25.7259 73.462 26.174C72.3645 26.622 71.0894 26.8461 69.6368 26.8461C67.8162 26.8461 66.1828 26.4531 64.7366 25.6675C63.2969 24.8817 62.1574 23.7259 61.3182 22.1999C60.4853 20.6739 60.0688 18.8071 60.0688 16.5993C60.0688 14.3785 60.4949 12.5084 61.3471 10.9889C62.1993 9.46295 63.3485 8.31033 64.7947 7.53111C66.2409 6.74539 67.8549 6.35254 69.6368 6.35254C70.8892 6.35254 72.0417 6.52462 73.094 6.86877C74.1463 7.21293 75.0695 7.71618 75.8636 8.37852C76.6578 9.03438 77.2969 9.84283 77.7811 10.8039C78.2653 11.7649 78.559 12.8655 78.6623 14.1057ZM90.0077 26.5733H84.1974L90.744 6.62526H98.1036L104.65 26.5733H98.8399L94.5013 12.1188H94.3462L90.0077 26.5733ZM88.9228 18.7032H99.8472V22.7552H88.9228V18.7032ZM128.084 6.62526V26.5733H123.59L116.424 16.0928H116.308V26.5733H110.924V6.62526H115.494L122.545 17.0668H122.7V6.62526H128.084ZM154.207 16.5993C154.207 18.82 153.778 20.6935 152.92 22.2195C152.061 23.7389 150.902 24.8915 149.443 25.6772C147.984 26.4564 146.357 26.8461 144.562 26.8461C142.755 26.8461 141.121 26.4531 139.662 25.6675C138.209 24.8752 137.053 23.7195 136.195 22.1999C135.343 20.6739 134.917 18.8071 134.917 16.5993C134.917 14.3785 135.343 12.5084 136.195 10.9889C137.053 9.46295 138.209 8.31033 139.662 7.53111C141.121 6.74539 142.755 6.35254 144.562 6.35254C146.357 6.35254 147.984 6.74539 149.443 7.53111C150.902 8.31033 152.061 9.46295 152.92 10.9889C153.778 12.5084 154.207 14.3785 154.207 16.5993ZM148.668 16.5993C148.668 15.4045 148.51 14.398 148.193 13.5798C147.884 12.7551 147.422 12.1317 146.809 11.7097C146.202 11.2811 145.453 11.0668 144.562 11.0668C143.671 11.0668 142.919 11.2811 142.306 11.7097C141.699 12.1317 141.237 12.7551 140.921 13.5798C140.611 14.398 140.456 15.4045 140.456 16.5993C140.456 17.7941 140.611 18.8038 140.921 19.6285C141.237 20.4467 141.699 21.07 142.306 21.4986C142.919 21.9207 143.671 22.1318 144.562 22.1318C145.453 22.1318 146.202 21.9207 146.809 21.4986C147.422 21.07 147.884 20.4467 148.193 19.6285C148.51 18.8038 148.668 17.7941 148.668 16.5993ZM178.222 6.62526V26.5733H173.729L166.563 16.0928H166.446V26.5733H161.062V6.62526H165.633L172.683 17.0668H172.837V6.62526H178.222ZM190.516 6.62526V26.5733H185.132V6.62526H190.516ZM215.948 14.1057H210.486C210.447 13.6512 210.344 13.2389 210.176 12.8688C210.015 12.4986 209.789 12.1804 209.498 11.9142C209.214 11.6415 208.868 11.4337 208.462 11.2909C208.055 11.1415 207.594 11.0668 207.077 11.0668C206.173 11.0668 205.409 11.2876 204.782 11.7291C204.162 12.1707 203.69 12.8038 203.368 13.6285C203.051 14.4531 202.894 15.4435 202.894 16.5993C202.894 17.8201 203.055 18.8428 203.378 19.6675C203.707 20.4856 204.181 21.1025 204.801 21.5181C205.421 21.9272 206.167 22.1318 207.038 22.1318C207.536 22.1318 207.981 22.0701 208.375 21.9467C208.769 21.8169 209.11 21.6317 209.401 21.3915C209.692 21.1512 209.928 20.8623 210.108 20.5246C210.295 20.1805 210.421 19.7941 210.486 19.3655L215.948 19.4045C215.883 20.2486 215.648 21.109 215.24 21.9856C214.834 22.8558 214.256 23.661 213.507 24.4012C212.765 25.135 211.845 25.7259 210.748 26.174C209.65 26.622 208.375 26.8461 206.922 26.8461C205.102 26.8461 203.468 26.4531 202.022 25.6675C200.583 24.8817 199.443 23.7259 198.604 22.1999C197.77 20.6739 197.354 18.8071 197.354 16.5993C197.354 14.3785 197.78 12.5084 198.633 10.9889C199.485 9.46295 200.634 8.31033 202.08 7.53111C203.526 6.74539 205.14 6.35254 206.922 6.35254C208.175 6.35254 209.327 6.52462 210.379 6.86877C211.432 7.21293 212.355 7.71618 213.149 8.37852C213.943 9.03438 214.582 9.84283 215.067 10.8039C215.551 11.7649 215.845 12.8655 215.948 14.1057ZM234.491 6.62526H239.875V19.4045C239.875 20.924 239.514 22.2389 238.791 23.3493C238.074 24.4532 237.074 25.3071 235.789 25.911C234.504 26.5083 233.012 26.8071 231.315 26.8071C229.603 26.8071 228.106 26.5083 226.821 25.911C225.537 25.3071 224.535 24.4532 223.819 23.3493C223.109 22.2389 222.754 20.924 222.754 19.4045V6.62526H228.138V18.9369C228.138 19.5538 228.274 20.1057 228.545 20.5928C228.816 21.0733 229.191 21.4499 229.668 21.7227C230.152 21.9954 230.701 22.1318 231.315 22.1318C231.934 22.1318 232.483 21.9954 232.961 21.7227C233.438 21.4499 233.813 21.0733 234.084 20.5928C234.355 20.1057 234.491 19.5538 234.491 18.9369V6.62526ZM246.797 6.62526H253.499L258.109 17.924H258.341L262.951 6.62526H269.652V26.5733H264.384V15.0409H264.229L259.813 26.4175H256.637L252.221 14.9629H252.066V26.5733H246.797V6.62526Z" fill="white"/>
<path d="M1.05078 45.4306V36.7033H2.10151V41.0328H2.2032L6.10105 36.7033H7.47377L3.83012 40.6408L7.47377 45.4306H6.20273L3.18613 41.3737L2.10151 42.601V45.4306H1.05078ZM10.1442 45.4306H9.0426L12.2286 36.7033H13.3132L16.4994 45.4306H15.3978L12.8048 38.084H12.7371L10.1442 45.4306ZM10.5509 42.0214H14.991V42.959H10.5509V42.0214ZM25.6859 36.7033V45.4306H24.6691L19.9408 38.5783H19.8561V45.4306H18.8053V36.7033H19.8222L24.5674 43.5726H24.6521V36.7033H25.6859ZM35.7251 39.4306H34.6743C34.6122 39.1266 34.5035 38.8595 34.3481 38.6294C34.1957 38.3993 34.0092 38.2061 33.7889 38.0499C33.5714 37.8908 33.3299 37.7715 33.0644 37.6919C32.7989 37.6124 32.5221 37.5726 32.234 37.5726C31.7086 37.5726 31.2327 37.7062 30.8062 37.9732C30.3825 38.2402 30.045 38.6337 29.7936 39.1535C29.545 39.6735 29.4208 40.3113 29.4208 41.0669C29.4208 41.8226 29.545 42.4604 29.7936 42.9802C30.045 43.5002 30.3825 43.8936 30.8062 44.1607C31.2327 44.4277 31.7086 44.5612 32.234 44.5612C32.5221 44.5612 32.7989 44.5215 33.0644 44.4419C33.3299 44.3624 33.5714 44.2444 33.7889 44.0882C34.0092 43.9291 34.1957 43.7345 34.3481 43.5044C34.5035 43.2715 34.6122 43.0044 34.6743 42.7033H35.7251C35.646 43.1493 35.502 43.5484 35.293 43.9007C35.0839 44.253 34.8241 44.5528 34.5134 44.7999C34.2026 45.0442 33.8538 45.2302 33.4669 45.3581C33.0828 45.4859 32.6718 45.5499 32.234 45.5499C31.4939 45.5499 30.8359 45.3681 30.2597 45.0044C29.6834 44.6408 29.2301 44.1238 28.8997 43.4533C28.5692 42.7828 28.4039 41.9874 28.4039 41.0669C28.4039 40.1464 28.5692 39.351 28.8997 38.6806C29.2301 38.0101 29.6834 37.4931 30.2597 37.1294C30.8359 36.7658 31.4939 36.584 32.234 36.584C32.6718 36.584 33.0828 36.6479 33.4669 36.7757C33.8538 36.9035 34.2026 37.0911 34.5134 37.3382C34.8241 37.5826 35.0839 37.8808 35.293 38.2331C35.502 38.5826 35.646 38.9817 35.7251 39.4306ZM38.3775 45.4306V36.7033H43.6142V37.6408H39.4282V40.5897H43.343V41.5271H39.4282V44.493H43.6819V45.4306H38.3775ZM46.4625 45.4306V36.7033H47.5132V44.493H51.5466V45.4306H46.4625ZM55.0315 45.4306H53.9299L57.116 36.7033H58.2006L61.3867 45.4306H60.2851L57.6922 38.084H57.6245L55.0315 45.4306ZM55.4382 42.0214H59.8784V42.959H55.4382V42.0214ZM63.6927 45.4306V36.7033H66.6246C67.3025 36.7033 67.8589 36.8198 68.2939 37.0528C68.7288 37.2828 69.0509 37.5996 69.2598 38.003C69.4689 38.4064 69.5733 38.8652 69.5733 39.3794C69.5733 39.8936 69.4689 40.3496 69.2598 40.7473C69.0509 41.145 68.7303 41.4575 68.2981 41.6848C67.866 41.9092 67.3137 42.0214 66.6415 42.0214H64.2689V41.0669H66.6076C67.0709 41.0669 67.4437 40.9987 67.7261 40.8624C68.0114 40.726 68.2176 40.5328 68.3447 40.2828C68.4746 40.03 68.5396 39.7288 68.5396 39.3794C68.5396 39.03 68.4746 38.7246 68.3447 38.4632C68.2148 38.2018 68.0072 38.0002 67.7219 37.8581C67.4366 37.7132 67.0595 37.6408 66.5906 37.6408H64.7434V45.4306H63.6927ZM67.777 41.5101L69.9124 45.4306H68.6921L66.5906 41.5101H67.777ZM73.3294 36.7033V45.4306H72.2787V36.7033H73.3294ZM76.7465 45.4306H75.6449L78.8311 36.7033H79.9157L83.1017 45.4306H82.0001L79.4072 38.084H79.3395L76.7465 45.4306ZM77.1533 42.0214H81.5934V42.959H77.1533V42.0214ZM89.7181 45.4306V36.7033H92.6497C93.3306 36.7033 93.8871 36.8269 94.3191 37.074C94.7538 37.3183 95.0759 37.6493 95.2847 38.0669C95.4935 38.4845 95.5983 38.9505 95.5983 39.4647C95.5983 39.9789 95.4935 40.4462 95.2847 40.8666C95.0785 41.2871 94.7597 41.6224 94.3277 41.8723C93.8956 42.1195 93.3417 42.243 92.6667 42.243H90.5652V41.3056H92.6326C93.0988 41.3056 93.4729 41.2246 93.755 41.0626C94.0379 40.9007 94.2424 40.682 94.3694 40.4064C94.4998 40.128 94.5646 39.814 94.5646 39.4647C94.5646 39.1152 94.4998 38.8027 94.3694 38.5271C94.2424 38.2516 94.0362 38.0356 93.7516 37.8794C93.4661 37.7203 93.0877 37.6408 92.6156 37.6408H90.7689V45.4306H89.7181ZM98.2452 45.4306V36.7033H101.178C101.855 36.7033 102.412 36.8198 102.846 37.0528C103.282 37.2828 103.604 37.5996 103.813 38.003C104.021 38.4064 104.126 38.8652 104.126 39.3794C104.126 39.8936 104.021 40.3496 103.813 40.7473C103.604 41.145 103.283 41.4575 102.851 41.6848C102.418 41.9092 101.866 42.0214 101.195 42.0214H98.8213V41.0669H101.161C101.623 41.0669 101.997 40.9987 102.279 40.8624C102.564 40.726 102.77 40.5328 102.897 40.2828C103.028 40.03 103.093 39.7288 103.093 39.3794C103.093 39.03 103.028 38.7246 102.897 38.4632C102.768 38.2018 102.56 38.0002 102.274 37.8581C101.99 37.7132 101.612 37.6408 101.144 37.6408H99.296V45.4306H98.2452ZM102.33 41.5101L104.465 45.4306H103.245L101.144 41.5101H102.33ZM107.187 45.4306H106.085L109.272 36.7033H110.357L113.542 45.4306H112.441L109.848 38.084H109.781L107.187 45.4306ZM107.594 42.0214H112.034V42.959H107.594V42.0214ZM116.749 45.4306L114.377 36.7033H115.444L117.257 43.8112H117.342L119.189 36.7033H120.375L122.223 43.8112H122.307L124.121 36.7033H125.188L122.816 45.4306H121.731L119.816 38.476H119.749L117.833 45.4306H116.749ZM127.132 45.4306H126.03L129.217 36.7033H130.302L133.487 45.4306H132.386L129.793 38.084H129.726L127.132 45.4306ZM127.539 42.0214H131.98V42.959H127.539V42.0214ZM140.104 45.4306V36.7033H141.154V41.0328H141.256L145.154 36.7033H146.527L142.883 40.6408L146.527 45.4306H145.255L142.239 41.3737L141.154 42.601V45.4306H140.104ZM149.197 45.4306H148.096L151.281 36.7033H152.366L155.552 45.4306H154.45L151.857 38.084H151.79L149.197 45.4306ZM149.604 42.0214H154.044V42.959H149.604V42.0214ZM164.738 36.7033V45.4306H163.722L158.994 38.5783H158.909V45.4306H157.858V36.7033H158.875L163.62 43.5726H163.705V36.7033H164.738ZM175.117 41.0669C175.117 41.9874 174.952 42.7828 174.621 43.4533C174.291 44.1238 173.837 44.6408 173.261 45.0044C172.685 45.3681 172.027 45.5499 171.287 45.5499C170.547 45.5499 169.889 45.3681 169.312 45.0044C168.736 44.6408 168.283 44.1238 167.953 43.4533C167.622 42.7828 167.457 41.9874 167.457 41.0669C167.457 40.1464 167.622 39.351 167.953 38.6806C168.283 38.0101 168.736 37.4931 169.312 37.1294C169.889 36.7658 170.547 36.584 171.287 36.584C172.027 36.584 172.685 36.7658 173.261 37.1294C173.837 37.4931 174.291 38.0101 174.621 38.6806C174.952 39.351 175.117 40.1464 175.117 41.0669ZM174.1 41.0669C174.1 40.3113 173.974 39.6735 173.723 39.1535C173.474 38.6337 173.137 38.2402 172.711 37.9732C172.287 37.7062 171.812 37.5726 171.287 37.5726C170.762 37.5726 170.285 37.7062 169.859 37.9732C169.436 38.2402 169.098 38.6337 168.847 39.1535C168.598 39.6735 168.473 40.3113 168.473 41.0669C168.473 41.8226 168.598 42.4604 168.847 42.9802C169.098 43.5002 169.436 43.8936 169.859 44.1607C170.285 44.4277 170.762 44.5612 171.287 44.5612C171.812 44.5612 172.287 44.4277 172.711 44.1607C173.137 43.8936 173.474 43.5002 173.723 42.9802C173.974 42.4604 174.1 41.8226 174.1 41.0669ZM184.719 36.7033V45.4306H183.701L178.973 38.5783H178.889V45.4306H177.838V36.7033H178.855L183.6 43.5726H183.684V36.7033H184.719ZM188.827 36.7033V45.4306H187.776V36.7033H188.827ZM198.87 39.4306H197.819C197.757 39.1266 197.648 38.8595 197.493 38.6294C197.34 38.3993 197.153 38.2061 196.934 38.0499C196.716 37.8908 196.474 37.7715 196.209 37.6919C195.943 37.6124 195.666 37.5726 195.378 37.5726C194.853 37.5726 194.377 37.7062 193.951 37.9732C193.527 38.2402 193.19 38.6337 192.938 39.1535C192.69 39.6735 192.565 40.3113 192.565 41.0669C192.565 41.8226 192.69 42.4604 192.938 42.9802C193.19 43.5002 193.527 43.8936 193.951 44.1607C194.377 44.4277 194.853 44.5612 195.378 44.5612C195.666 44.5612 195.943 44.5215 196.209 44.4419C196.474 44.3624 196.716 44.2444 196.934 44.0882C197.153 43.9291 197.34 43.7345 197.493 43.5044C197.648 43.2715 197.757 43.0044 197.819 42.7033H198.87C198.79 43.1493 198.646 43.5484 198.438 43.9007C198.229 44.253 197.969 44.5528 197.658 44.7999C197.348 45.0442 196.998 45.2302 196.611 45.3581C196.227 45.4859 195.816 45.5499 195.378 45.5499C194.639 45.5499 193.981 45.3681 193.405 45.0044C192.828 44.6408 192.375 44.1238 192.044 43.4533C191.714 42.7828 191.548 41.9874 191.548 41.0669C191.548 40.1464 191.714 39.351 192.044 38.6806C192.375 38.0101 192.828 37.4931 193.405 37.1294C193.981 36.7658 194.639 36.584 195.378 36.584C195.816 36.584 196.227 36.6479 196.611 36.7757C196.998 36.9035 197.348 37.0911 197.658 37.3382C197.969 37.5826 198.229 37.8808 198.438 38.2331C198.646 38.5826 198.79 38.9817 198.87 39.4306ZM201.234 45.4306V44.6635L205.911 37.6408H201.183V36.7033H207.165V37.4704L202.488 44.493H207.216V45.4306H201.234ZM216.814 36.7033V45.4306H215.797L211.069 38.5783H210.984V45.4306H209.933V36.7033H210.951L215.696 43.5726H215.78V36.7033H216.814ZM219.871 45.4306V36.7033H225.107V37.6408H220.921V40.5897H224.836V41.5271H220.921V44.493H225.176V45.4306H219.871ZM233.888 39.4306C233.794 39.1436 233.671 38.8865 233.519 38.6592C233.369 38.4292 233.19 38.2331 232.981 38.0712C232.775 37.9092 232.54 37.7857 232.278 37.7004C232.014 37.6152 231.726 37.5726 231.413 37.5726C230.899 37.5726 230.432 37.7062 230.011 37.9732C229.59 38.2402 229.255 38.6337 229.006 39.1535C228.758 39.6735 228.634 40.3113 228.634 41.0669C228.634 41.8226 228.759 42.4604 229.01 42.9802C229.262 43.5002 229.603 43.8936 230.032 44.1607C230.461 44.4277 230.944 44.5612 231.481 44.5612C231.978 44.5612 232.416 44.4547 232.794 44.2416C233.176 44.0257 233.473 43.7218 233.684 43.3297C233.899 42.9348 234.006 42.4703 234.006 41.9362L234.328 42.0044H231.718V41.0669H235.023V42.0044C235.023 42.7232 234.87 43.3481 234.565 43.8794C234.263 44.4106 233.845 44.8226 233.311 45.1152C232.781 45.405 232.17 45.5499 231.481 45.5499C230.712 45.5499 230.037 45.3681 229.455 45.0044C228.877 44.6408 228.425 44.1238 228.1 43.4533C227.778 42.7828 227.617 41.9874 227.617 41.0669C227.617 40.3766 227.709 39.7558 227.892 39.2047C228.079 38.6507 228.341 38.1791 228.681 37.7899C229.019 37.4008 229.42 37.1025 229.884 36.895C230.347 36.6877 230.856 36.584 231.413 36.584C231.87 36.584 232.297 36.6536 232.693 36.7928C233.091 36.9292 233.445 37.1237 233.756 37.3766C234.07 37.6266 234.331 37.9263 234.54 38.2757C234.749 38.6224 234.893 39.0073 234.972 39.4306H233.888ZM245.098 41.0669C245.098 41.9874 244.933 42.7828 244.602 43.4533C244.272 44.1238 243.818 44.6408 243.242 45.0044C242.666 45.3681 242.008 45.5499 241.268 45.5499C240.528 45.5499 239.87 45.3681 239.294 45.0044C238.718 44.6408 238.264 44.1238 237.934 43.4533C237.603 42.7828 237.438 41.9874 237.438 41.0669C237.438 40.1464 237.603 39.351 237.934 38.6806C238.264 38.0101 238.718 37.4931 239.294 37.1294C239.87 36.7658 240.528 36.584 241.268 36.584C242.008 36.584 242.666 36.7658 243.242 37.1294C243.818 37.4931 244.272 38.0101 244.602 38.6806C244.933 39.351 245.098 40.1464 245.098 41.0669ZM244.082 41.0669C244.082 40.3113 243.955 39.6735 243.704 39.1535C243.455 38.6337 243.118 38.2402 242.692 37.9732C242.268 37.7062 241.793 37.5726 241.268 37.5726C240.743 37.5726 240.266 37.7062 239.84 37.9732C239.417 38.2402 239.079 38.6337 238.828 39.1535C238.579 39.6735 238.455 40.3113 238.455 41.0669C238.455 41.8226 238.579 42.4604 238.828 42.9802C239.079 43.5002 239.417 43.8936 239.84 44.1607C240.266 44.4277 240.743 44.5612 241.268 44.5612C241.793 44.5612 242.268 44.4277 242.692 44.1607C243.118 43.8936 243.455 43.5002 243.704 42.9802C243.955 42.4604 244.082 41.8226 244.082 41.0669Z" fill="white"/>
</svg>
