<svg width="27" height="24" viewBox="0 0 27 24" fill="none" xmlns="http://www.w3.org/2000/svg">
<g clip-path="url(#clip0_242_33)">
<path d="M6.21542 7.69922H1.16797V24.0021H6.21542V7.69922Z" fill="white"/>
<path d="M3.58511 0.00195312C1.72393 0.00195312 0.5 1.21676 0.5 2.82969C0.5 4.41199 1.68347 5.65742 3.51431 5.65742H3.55477C5.45641 5.65742 6.63988 4.40178 6.62977 2.82969C6.58931 1.21676 5.4463 0.00195312 3.58511 0.00195312Z" fill="white"/>
<path d="M20.001 7.5459C17.1081 7.5459 15.2975 9.13841 14.9637 10.2613V7.69902H9.28906C9.35987 9.05675 9.28906 24.0019 9.28906 24.0019H14.9637V15.192C14.9637 14.6918 14.9434 14.2018 15.085 13.8547C15.4694 12.8747 16.309 11.8539 17.8161 11.8539C19.7886 11.8539 20.6787 13.3647 20.6787 15.5697V24.0019H26.4039V14.9368C26.4039 9.89384 23.5919 7.5459 20.001 7.5459Z" fill="white"/>
</g>
<defs>
<clipPath id="clip0_242_33">
<rect width="25.8947" height="24" fill="white" transform="translate(0.5 0.00195312)"/>
</clipPath>
</defs>
</svg>
