<svg width="41" height="40" viewBox="0 0 41 40" fill="none" xmlns="http://www.w3.org/2000/svg">
<g clip-path="url(#clip0_207_1491)">
<path fill-rule="evenodd" clip-rule="evenodd" d="M32.2587 13.2632C32.2587 6.56697 27.1102 0.95459 20.3635 0.95459C13.6168 0.95459 8.44922 6.57078 8.44922 13.2689C8.44922 15.4784 8.75779 17.1451 9.80446 19.0498H9.78446L19.9702 38.6889C20.353 39.2136 20.7549 38.6584 20.7549 38.6584C20.4111 39.1736 30.9406 19.0498 30.9406 19.0498H30.9321C31.9683 17.1451 32.2587 15.4746 32.2587 13.2632ZM14.8787 12.886C14.8787 9.72697 17.3349 7.16792 20.3635 7.16792C23.3911 7.16792 25.8492 9.72697 25.8492 12.886C25.8492 16.0451 23.3911 18.6051 20.3635 18.6051C17.3349 18.6051 14.8787 16.046 14.8787 12.886Z" fill="white"/>
</g>
<defs>
<clipPath id="clip0_207_1491">
<rect width="40" height="40" fill="white" transform="translate(0.832031 0.00219727)"/>
</clipPath>
</defs>
</svg>
