<svg width="318" height="56" viewBox="0 0 318 56" fill="none" xmlns="http://www.w3.org/2000/svg">
<path d="M7.81818 7.72724V31H1.5V7.72724H7.81818ZM29.7052 7.72724H36.0234V22.6364C36.0234 24.4091 35.5992 25.9432 34.7507 27.2386C33.9098 28.5265 32.7355 29.5227 31.228 30.2273C29.7204 30.9242 27.9704 31.2727 25.978 31.2727C23.9704 31.2727 22.2128 30.9242 20.7052 30.2273C19.1977 29.5227 18.0234 28.5265 17.1825 27.2386C16.3492 25.9432 15.9325 24.4091 15.9325 22.6364V7.72724H22.2507V22.0909C22.2507 22.8106 22.4098 23.4545 22.728 24.0227C23.0461 24.5833 23.4855 25.0227 24.0461 25.3409C24.6143 25.6591 25.2583 25.8182 25.978 25.8182C26.7052 25.8182 27.3492 25.6591 27.9098 25.3409C28.4704 25.0227 28.9098 24.5833 29.228 24.0227C29.5461 23.4545 29.7052 22.8106 29.7052 22.0909V7.72724ZM56.6917 15C56.6311 14.2424 56.347 13.6515 55.8394 13.2273C55.3394 12.803 54.5781 12.5909 53.5553 12.5909C52.9038 12.5909 52.3697 12.6705 51.9531 12.8295C51.544 12.9811 51.2409 13.1894 51.044 13.4545C50.847 13.7197 50.7447 14.0227 50.7372 14.3636C50.722 14.6439 50.7712 14.8977 50.8849 15.125C51.0061 15.3447 51.1955 15.5455 51.4531 15.7273C51.7106 15.9015 52.0402 16.0606 52.4417 16.2045C52.8432 16.3485 53.3205 16.4773 53.8735 16.5909L55.7826 17C57.0705 17.2727 58.1728 17.6326 59.0894 18.0795C60.0061 18.5265 60.7561 19.053 61.3394 19.6591C61.9228 20.2576 62.3508 20.9318 62.6235 21.6818C62.9038 22.4318 63.0478 23.25 63.0553 24.1364C63.0478 25.6667 62.6652 26.9621 61.9076 28.0227C61.15 29.0833 60.0667 29.8902 58.6576 30.4432C57.2561 30.9962 55.5705 31.2727 53.6008 31.2727C51.5781 31.2727 49.8129 30.9735 48.3053 30.375C46.8053 29.7765 45.6387 28.8561 44.8053 27.6136C43.9796 26.3636 43.5629 24.7652 43.5553 22.8182H49.5553C49.5932 23.5303 49.7712 24.1288 50.0894 24.6136C50.4076 25.0985 50.8546 25.4659 51.4303 25.7159C52.0137 25.9659 52.7069 26.0909 53.5099 26.0909C54.1841 26.0909 54.7485 26.0076 55.2031 25.8409C55.6576 25.6742 56.0023 25.4432 56.2372 25.1477C56.472 24.8523 56.5932 24.5152 56.6008 24.1364C56.5932 23.7803 56.4758 23.4697 56.2485 23.2045C56.0288 22.9318 55.6652 22.6894 55.1576 22.4773C54.65 22.2576 53.9644 22.053 53.1008 21.8636L50.7826 21.3636C48.722 20.9167 47.097 20.1705 45.9076 19.125C44.7258 18.072 44.1387 16.6364 44.1462 14.8182C44.1387 13.3409 44.5326 12.0492 45.3281 10.9432C46.1311 9.82951 47.2409 8.96209 48.6576 8.34088C50.0819 7.71967 51.7144 7.40906 53.5553 7.40906C55.4341 7.40906 57.0591 7.72345 58.4303 8.35224C59.8016 8.98103 60.8584 9.86739 61.6008 11.0114C62.3508 12.1477 62.7296 13.4773 62.7372 15H56.6917ZM92.306 16.4545H85.8969C85.8515 15.9242 85.7303 15.4432 85.5333 15.0114C85.3439 14.5795 85.0788 14.2083 84.7378 13.8977C84.4045 13.5795 83.9992 13.3371 83.5219 13.1705C83.0447 12.9962 82.503 12.9091 81.8969 12.9091C80.8363 12.9091 79.9386 13.1667 79.2038 13.6818C78.4765 14.197 77.9234 14.9356 77.5447 15.8977C77.1734 16.8598 76.9878 18.0152 76.9878 19.3636C76.9878 20.7879 77.1772 21.9811 77.556 22.9432C77.9424 23.8977 78.4992 24.6174 79.2265 25.1023C79.9538 25.5795 80.8288 25.8182 81.8515 25.8182C82.4348 25.8182 82.9575 25.7462 83.4197 25.6023C83.8818 25.4508 84.2833 25.2348 84.6242 24.9545C84.9651 24.6742 85.2416 24.3371 85.4538 23.9432C85.6734 23.5417 85.8212 23.0909 85.8969 22.5909L92.306 22.6364C92.2303 23.6212 91.9538 24.625 91.4765 25.6477C90.9992 26.6629 90.3212 27.6023 89.4424 28.4659C88.5712 29.322 87.4916 30.0114 86.2038 30.5341C84.9159 31.0568 83.4197 31.3182 81.7151 31.3182C79.5788 31.3182 77.6621 30.8598 75.9651 29.9432C74.2757 29.0265 72.9386 27.678 71.9538 25.8977C70.9765 24.1174 70.4878 21.9394 70.4878 19.3636C70.4878 16.7727 70.9878 14.5909 71.9878 12.8182C72.9878 11.0379 74.3363 9.69315 76.0333 8.78406C77.7303 7.86739 79.6242 7.40906 81.7151 7.40906C83.1848 7.40906 84.5371 7.60982 85.7719 8.01133C87.0068 8.41285 88.0901 8.99997 89.0219 9.7727C89.9538 10.5379 90.7038 11.4811 91.2719 12.6023C91.8401 13.7235 92.1848 15.0076 92.306 16.4545ZM105.619 31H98.801L106.483 7.72724H115.119L122.801 31H115.983L110.892 14.1364H110.71L105.619 31ZM104.346 21.8182H117.165V26.5455H104.346V21.8182ZM150.299 7.72724V31H145.026L136.617 18.7727H136.481V31H130.163V7.72724H135.526L143.799 19.9091H143.981V7.72724H150.299ZM180.953 19.3636C180.953 21.9545 180.449 24.1402 179.442 25.9205C178.434 27.6932 177.074 29.0379 175.362 29.9545C173.65 30.8636 171.741 31.3182 169.635 31.3182C167.514 31.3182 165.597 30.8598 163.885 29.9432C162.18 29.0189 160.824 27.6705 159.817 25.8977C158.817 24.1174 158.317 21.9394 158.317 19.3636C158.317 16.7727 158.817 14.5909 159.817 12.8182C160.824 11.0379 162.18 9.69315 163.885 8.78406C165.597 7.86739 167.514 7.40906 169.635 7.40906C171.741 7.40906 173.65 7.86739 175.362 8.78406C177.074 9.69315 178.434 11.0379 179.442 12.8182C180.449 14.5909 180.953 16.7727 180.953 19.3636ZM174.453 19.3636C174.453 17.9697 174.267 16.7955 173.896 15.8409C173.533 14.8788 172.991 14.1515 172.271 13.6591C171.559 13.1591 170.68 12.9091 169.635 12.9091C168.589 12.9091 167.707 13.1591 166.987 13.6591C166.275 14.1515 165.733 14.8788 165.362 15.8409C164.998 16.7955 164.817 17.9697 164.817 19.3636C164.817 20.7576 164.998 21.9356 165.362 22.8977C165.733 23.8523 166.275 24.5795 166.987 25.0795C167.707 25.572 168.589 25.8182 169.635 25.8182C170.68 25.8182 171.559 25.572 172.271 25.0795C172.991 24.5795 173.533 23.8523 173.896 22.8977C174.267 21.9356 174.453 20.7576 174.453 19.3636ZM209.133 7.72724V31H203.86L195.451 18.7727H195.314V31H188.996V7.72724H194.36L202.633 19.9091H202.814V7.72724H209.133ZM223.559 7.72724V31H217.241V7.72724H223.559ZM253.401 16.4545H246.992C246.946 15.9242 246.825 15.4432 246.628 15.0114C246.439 14.5795 246.174 14.2083 245.833 13.8977C245.5 13.5795 245.094 13.3371 244.617 13.1705C244.14 12.9962 243.598 12.9091 242.992 12.9091C241.931 12.9091 241.034 13.1667 240.299 13.6818C239.571 14.197 239.018 14.9356 238.64 15.8977C238.268 16.8598 238.083 18.0152 238.083 19.3636C238.083 20.7879 238.272 21.9811 238.651 22.9432C239.037 23.8977 239.594 24.6174 240.321 25.1023C241.049 25.5795 241.924 25.8182 242.946 25.8182C243.53 25.8182 244.053 25.7462 244.515 25.6023C244.977 25.4508 245.378 25.2348 245.719 24.9545C246.06 24.6742 246.337 24.3371 246.549 23.9432C246.768 23.5417 246.916 23.0909 246.992 22.5909L253.401 22.6364C253.325 23.6212 253.049 24.625 252.571 25.6477C252.094 26.6629 251.416 27.6023 250.537 28.4659C249.666 29.322 248.587 30.0114 247.299 30.5341C246.011 31.0568 244.515 31.3182 242.81 31.3182C240.674 31.3182 238.757 30.8598 237.06 29.9432C235.371 29.0265 234.034 27.678 233.049 25.8977C232.071 24.1174 231.583 21.9394 231.583 19.3636C231.583 16.7727 232.083 14.5909 233.083 12.8182C234.083 11.0379 235.431 9.69315 237.128 8.78406C238.825 7.86739 240.719 7.40906 242.81 7.40906C244.28 7.40906 245.632 7.60982 246.867 8.01133C248.102 8.41285 249.185 8.99997 250.117 9.7727C251.049 10.5379 251.799 11.4811 252.367 12.6023C252.935 13.7235 253.28 15.0076 253.401 16.4545ZM275.16 7.72724H281.478V22.6364C281.478 24.4091 281.054 25.9432 280.206 27.2386C279.365 28.5265 278.191 29.5227 276.683 30.2273C275.175 30.9242 273.425 31.2727 271.433 31.2727C269.425 31.2727 267.668 30.9242 266.16 30.2273C264.653 29.5227 263.478 28.5265 262.638 27.2386C261.804 25.9432 261.388 24.4091 261.388 22.6364V7.72724H267.706V22.0909C267.706 22.8106 267.865 23.4545 268.183 24.0227C268.501 24.5833 268.941 25.0227 269.501 25.3409C270.069 25.6591 270.713 25.8182 271.433 25.8182C272.16 25.8182 272.804 25.6591 273.365 25.3409C273.925 25.0227 274.365 24.5833 274.683 24.0227C275.001 23.4545 275.16 22.8106 275.16 22.0909V7.72724ZM289.601 7.72724H297.465L302.874 20.9091H303.147L308.556 7.72724H316.419V31H310.238V17.5455H310.056L304.874 30.8182H301.147L295.965 17.4545H295.783V31H289.601V7.72724Z" fill="#143642"/>
<path d="M1.23438 53V42.8182H2.46733V47.8693H2.58666L7.16051 42.8182H8.77131L4.49574 47.4119L8.77131 53H7.27983L3.74007 48.267L2.46733 49.6989V53H1.23438ZM11.9048 53H10.6122L14.3508 42.8182H15.6235L19.3622 53H18.0696L15.0269 44.429H14.9474L11.9048 53ZM12.3821 49.0227H17.5923V50.1165H12.3821V49.0227ZM30.142 42.8182V53H28.9488L23.4005 45.0057H23.3011V53H22.0681V42.8182H23.2613L28.8295 50.8324H28.9289V42.8182H30.142ZM41.9223 46H40.6893C40.6164 45.6454 40.4888 45.3338 40.3065 45.0653C40.1276 44.7969 39.9088 44.5715 39.6503 44.3892C39.3951 44.2036 39.1117 44.0644 38.8001 43.9716C38.4886 43.8788 38.1638 43.8324 37.8257 43.8324C37.2092 43.8324 36.6508 43.9882 36.1503 44.2997C35.6531 44.6113 35.2571 45.0703 34.9621 45.6768C34.6704 46.2834 34.5246 47.0275 34.5246 47.9091C34.5246 48.7907 34.6704 49.5348 34.9621 50.1413C35.2571 50.7479 35.6531 51.2069 36.1503 51.5185C36.6508 51.83 37.2092 51.9858 37.8257 51.9858C38.1638 51.9858 38.4886 51.9394 38.8001 51.8466C39.1117 51.7538 39.3951 51.6162 39.6503 51.4339C39.9088 51.2483 40.1276 51.0213 40.3065 50.7528C40.4888 50.4811 40.6164 50.1695 40.6893 49.8182H41.9223C41.8295 50.3385 41.6605 50.8042 41.4152 51.2152C41.1699 51.6262 40.865 51.9759 40.5004 52.2642C40.1358 52.5492 39.7265 52.7663 39.2724 52.9155C38.8217 53.0646 38.3394 53.1392 37.8257 53.1392C36.9573 53.1392 36.1851 52.9271 35.509 52.5028C34.8328 52.0786 34.3009 51.4754 33.9131 50.6932C33.5253 49.911 33.3314 48.983 33.3314 47.9091C33.3314 46.8352 33.5253 45.9072 33.9131 45.125C34.3009 44.3428 34.8328 43.7396 35.509 43.3153C36.1851 42.8911 36.9573 42.679 37.8257 42.679C38.3394 42.679 38.8217 42.7536 39.2724 42.9027C39.7265 43.0518 40.1358 43.2706 40.5004 43.5589C40.865 43.844 41.1699 44.192 41.4152 44.603C41.6605 45.0107 41.8295 45.4763 41.9223 46ZM45.0347 53V42.8182H51.1796V43.9119H46.2676V47.3523H50.8614V48.446H46.2676V51.9062H51.2591V53H45.0347ZM54.5219 53V42.8182H55.7548V51.9062H60.4878V53H54.5219ZM64.577 53H63.2844L67.0231 42.8182H68.2958L72.0344 53H70.7418L67.6992 44.429H67.6197L64.577 53ZM65.0543 49.0227H70.2645V50.1165H65.0543V49.0227ZM74.7404 53V42.8182H78.1807C78.9762 42.8182 79.6291 42.9541 80.1395 43.2259C80.6499 43.4943 81.0278 43.8639 81.273 44.3345C81.5183 44.8052 81.6409 45.3404 81.6409 45.9403C81.6409 46.5402 81.5183 47.0722 81.273 47.5362C81.0278 48.0002 80.6516 48.3648 80.1445 48.63C79.6374 48.8918 78.9894 49.0227 78.2006 49.0227H75.4165V47.9091H78.1608C78.7044 47.9091 79.1419 47.8295 79.4733 47.6705C79.8081 47.5114 80.05 47.286 80.1992 46.9943C80.3516 46.6993 80.4279 46.348 80.4279 45.9403C80.4279 45.5327 80.3516 45.1764 80.1992 44.8714C80.0467 44.5665 79.8031 44.3312 79.4683 44.1655C79.1336 43.9964 78.6911 43.9119 78.1409 43.9119H75.9733V53H74.7404ZM79.533 48.4261L82.0387 53H80.6068L78.1409 48.4261H79.533ZM86.0484 42.8182V53H84.8154V42.8182H86.0484ZM90.0581 53H88.7655L92.5042 42.8182H93.7769L97.5155 53H96.2229L93.1803 44.429H93.1008L90.0581 53ZM90.5354 49.0227H95.7456V50.1165H90.5354V49.0227ZM105.279 53V42.8182H108.719C109.518 42.8182 110.171 42.9624 110.678 43.2507C111.188 43.5357 111.566 43.9219 111.811 44.4091C112.056 44.8963 112.179 45.4399 112.179 46.0398C112.179 46.6397 112.056 47.1849 111.811 47.6754C111.569 48.166 111.195 48.5571 110.688 48.8487C110.181 49.1371 109.531 49.2812 108.739 49.2812H106.273V48.1875H108.699C109.246 48.1875 109.685 48.093 110.016 47.9041C110.348 47.7152 110.588 47.46 110.737 47.1385C110.89 46.8137 110.966 46.4474 110.966 46.0398C110.966 45.6321 110.89 45.2675 110.737 44.946C110.588 44.6245 110.346 44.3726 110.012 44.1903C109.677 44.0047 109.233 43.9119 108.679 43.9119H106.512V53H105.279ZM115.285 53V42.8182H118.726C119.521 42.8182 120.174 42.9541 120.684 43.2259C121.195 43.4943 121.573 43.8639 121.818 44.3345C122.063 44.8052 122.186 45.3404 122.186 45.9403C122.186 46.5402 122.063 47.0722 121.818 47.5362C121.573 48.0002 121.197 48.3648 120.689 48.63C120.182 48.8918 119.534 49.0227 118.746 49.0227H115.961V47.9091H118.706C119.249 47.9091 119.687 47.8295 120.018 47.6705C120.353 47.5114 120.595 47.286 120.744 46.9943C120.897 46.6993 120.973 46.348 120.973 45.9403C120.973 45.5327 120.897 45.1764 120.744 44.8714C120.592 44.5665 120.348 44.3312 120.013 44.1655C119.679 43.9964 119.236 43.9119 118.686 43.9119H116.518V53H115.285ZM120.078 48.4261L122.584 53H121.152L118.686 48.4261H120.078ZM125.778 53H124.485L128.224 42.8182H129.497L133.235 53H131.943L128.9 44.429H128.821L125.778 53ZM126.255 49.0227H131.465V50.1165H126.255V49.0227ZM136.998 53L134.214 42.8182H135.467L137.594 51.1108H137.694L139.861 42.8182H141.253L143.421 51.1108H143.52L145.648 42.8182H146.901L144.117 53H142.844L140.597 44.8864H140.518L138.27 53H136.998ZM149.182 53H147.889L151.628 42.8182H152.901L156.639 53H155.347L152.304 44.429H152.225L149.182 53ZM149.659 49.0227H154.87V50.1165H149.659V49.0227ZM164.403 53V42.8182H165.636V47.8693H165.755L170.329 42.8182H171.94L167.664 47.4119L171.94 53H170.448L166.909 48.267L165.636 49.6989V53H164.403ZM175.073 53H173.781L177.519 42.8182H178.792L182.531 53H181.238L178.195 44.429H178.116L175.073 53ZM175.551 49.0227H180.761V50.1165H175.551V49.0227ZM193.31 42.8182V53H192.117L186.569 45.0057H186.47V53H185.237V42.8182H186.43L191.998 50.8324H192.097V42.8182H193.31ZM205.489 47.9091C205.489 48.983 205.295 49.911 204.907 50.6932C204.519 51.4754 203.987 52.0786 203.311 52.5028C202.635 52.9271 201.863 53.1392 200.994 53.1392C200.126 53.1392 199.354 52.9271 198.677 52.5028C198.001 52.0786 197.469 51.4754 197.082 50.6932C196.694 49.911 196.5 48.983 196.5 47.9091C196.5 46.8352 196.694 45.9072 197.082 45.125C197.469 44.3428 198.001 43.7396 198.677 43.3153C199.354 42.8911 200.126 42.679 200.994 42.679C201.863 42.679 202.635 42.8911 203.311 43.3153C203.987 43.7396 204.519 44.3428 204.907 45.125C205.295 45.9072 205.489 46.8352 205.489 47.9091ZM204.295 47.9091C204.295 47.0275 204.148 46.2834 203.853 45.6768C203.561 45.0703 203.165 44.6113 202.665 44.2997C202.168 43.9882 201.611 43.8324 200.994 43.8324C200.378 43.8324 199.819 43.9882 199.319 44.2997C198.822 44.6113 198.426 45.0703 198.131 45.6768C197.839 46.2834 197.693 47.0275 197.693 47.9091C197.693 48.7907 197.839 49.5348 198.131 50.1413C198.426 50.7479 198.822 51.2069 199.319 51.5185C199.819 51.83 200.378 51.9858 200.994 51.9858C201.611 51.9858 202.168 51.83 202.665 51.5185C203.165 51.2069 203.561 50.7479 203.853 50.1413C204.148 49.5348 204.295 48.7907 204.295 47.9091ZM216.756 42.8182V53H215.562L210.014 45.0057H209.915V53H208.682V42.8182H209.875L215.443 50.8324H215.542V42.8182H216.756ZM221.576 42.8182V53H220.343V42.8182H221.576ZM233.361 46H232.128C232.055 45.6454 231.927 45.3338 231.745 45.0653C231.566 44.7969 231.347 44.5715 231.089 44.3892C230.834 44.2036 230.55 44.0644 230.239 43.9716C229.927 43.8788 229.602 43.8324 229.264 43.8324C228.648 43.8324 228.089 43.9882 227.589 44.2997C227.092 44.6113 226.696 45.0703 226.401 45.6768C226.109 46.2834 225.963 47.0275 225.963 47.9091C225.963 48.7907 226.109 49.5348 226.401 50.1413C226.696 50.7479 227.092 51.2069 227.589 51.5185C228.089 51.83 228.648 51.9858 229.264 51.9858C229.602 51.9858 229.927 51.9394 230.239 51.8466C230.55 51.7538 230.834 51.6162 231.089 51.4339C231.347 51.2483 231.566 51.0213 231.745 50.7528C231.927 50.4811 232.055 50.1695 232.128 49.8182H233.361C233.268 50.3385 233.099 50.8042 232.854 51.2152C232.609 51.6262 232.304 51.9759 231.939 52.2642C231.575 52.5492 231.165 52.7663 230.711 52.9155C230.26 53.0646 229.778 53.1392 229.264 53.1392C228.396 53.1392 227.624 52.9271 226.948 52.5028C226.271 52.0786 225.74 51.4754 225.352 50.6932C224.964 49.911 224.77 48.983 224.77 47.9091C224.77 46.8352 224.964 45.9072 225.352 45.125C225.74 44.3428 226.271 43.7396 226.948 43.3153C227.624 42.8911 228.396 42.679 229.264 42.679C229.778 42.679 230.26 42.7536 230.711 42.9027C231.165 43.0518 231.575 43.2706 231.939 43.5589C232.304 43.844 232.609 44.192 232.854 44.603C233.099 45.0107 233.268 45.4763 233.361 46ZM236.135 53V52.1051L241.624 43.9119H236.076V42.8182H243.095V43.7131L237.607 51.9062H243.155V53H236.135ZM254.417 42.8182V53H253.224L247.676 45.0057H247.576V53H246.343V42.8182H247.537L253.105 50.8324H253.204V42.8182H254.417ZM258.004 53V42.8182H264.149V43.9119H259.237V47.3523H263.831V48.446H259.237V51.9062H264.229V53H258.004ZM274.452 46C274.342 45.6652 274.198 45.3653 274.019 45.1001C273.844 44.8317 273.633 44.603 273.388 44.4141C273.146 44.2251 272.871 44.081 272.563 43.9815C272.254 43.8821 271.916 43.8324 271.548 43.8324C270.945 43.8324 270.397 43.9882 269.903 44.2997C269.409 44.6113 269.016 45.0703 268.724 45.6768C268.433 46.2834 268.287 47.0275 268.287 47.9091C268.287 48.7907 268.434 49.5348 268.729 50.1413C269.024 50.7479 269.424 51.2069 269.928 51.5185C270.431 51.83 270.998 51.9858 271.628 51.9858C272.211 51.9858 272.725 51.8615 273.169 51.6129C273.617 51.361 273.965 51.0064 274.213 50.549C274.465 50.0883 274.591 49.5464 274.591 48.9233L274.969 49.0028H271.906V47.9091H275.784V49.0028C275.784 49.8414 275.605 50.5705 275.247 51.1903C274.893 51.8101 274.402 52.2907 273.776 52.6321C273.153 52.9702 272.437 53.1392 271.628 53.1392C270.726 53.1392 269.934 52.9271 269.251 52.5028C268.572 52.0786 268.042 51.4754 267.661 50.6932C267.283 49.911 267.094 48.983 267.094 47.9091C267.094 47.1037 267.202 46.3795 267.417 45.7365C267.636 45.0902 267.944 44.54 268.342 44.0859C268.739 43.6319 269.21 43.2839 269.754 43.0419C270.297 42.8 270.895 42.679 271.548 42.679C272.085 42.679 272.586 42.7602 273.05 42.9226C273.517 43.0817 273.933 43.3087 274.298 43.6037C274.666 43.8954 274.972 44.245 275.217 44.6527C275.463 45.0571 275.632 45.5062 275.724 46H274.452ZM287.607 47.9091C287.607 48.983 287.413 49.911 287.025 50.6932C286.637 51.4754 286.105 52.0786 285.429 52.5028C284.753 52.9271 283.981 53.1392 283.112 53.1392C282.244 53.1392 281.472 52.9271 280.796 52.5028C280.12 52.0786 279.588 51.4754 279.2 50.6932C278.812 49.911 278.618 48.983 278.618 47.9091C278.618 46.8352 278.812 45.9072 279.2 45.125C279.588 44.3428 280.12 43.7396 280.796 43.3153C281.472 42.8911 282.244 42.679 283.112 42.679C283.981 42.679 284.753 42.8911 285.429 43.3153C286.105 43.7396 286.637 44.3428 287.025 45.125C287.413 45.9072 287.607 46.8352 287.607 47.9091ZM286.414 47.9091C286.414 47.0275 286.266 46.2834 285.971 45.6768C285.679 45.0703 285.283 44.6113 284.783 44.2997C284.286 43.9882 283.729 43.8324 283.112 43.8324C282.496 43.8324 281.937 43.9882 281.437 44.2997C280.94 44.6113 280.544 45.0703 280.249 45.6768C279.957 46.2834 279.811 47.0275 279.811 47.9091C279.811 48.7907 279.957 49.5348 280.249 50.1413C280.544 50.7479 280.94 51.2069 281.437 51.5185C281.937 51.83 282.496 51.9858 283.112 51.9858C283.729 51.9858 284.286 51.83 284.783 51.5185C285.283 51.2069 285.679 50.7479 285.971 50.1413C286.266 49.5348 286.414 48.7907 286.414 47.9091Z" fill="#9E2A2B"/>
</svg>
