<svg width="41" height="40" viewBox="0 0 41 40" fill="none" xmlns="http://www.w3.org/2000/svg">
<g id="phone-call-svgrepo-com 1" clip-path="url(#clip0_207_1500)">
<g id="Group">
<path id="Vector" d="M20.9942 28.2723C20.6798 28.5864 20.2685 28.7435 19.8571 28.7435C19.4457 28.7435 19.0343 28.5864 18.72 28.2723L11.8979 21.4502C11.5838 21.1358 11.4265 20.7245 11.4265 20.3131C11.4265 19.9017 11.5838 19.4901 11.8979 19.176L15.309 15.765L6.21289 6.66888L3.93872 8.94285C-1.08895 13.9707 -1.08895 22.1075 3.93872 27.1352L13.035 36.2313C14.2919 37.4882 15.7431 38.431 17.2916 39.0594C18.8398 39.6879 20.4856 40.0022 22.1311 40.0022C23.7768 40.0022 25.4223 39.6879 26.9707 39.0594C28.5192 38.431 29.9704 37.4882 31.2273 36.2313L33.5013 33.9573L24.4052 24.8612L20.9942 28.2723Z" fill="white"/>
<path id="Vector_2" d="M21.8346 3.33554H20.168V6.66887H21.8346C28.2669 6.66887 33.5013 11.9032 33.5013 18.3355V20.0022H36.8346V18.3355C36.8346 10.0641 30.1061 3.33554 21.8346 3.33554Z" fill="white"/>
<path id="Vector_3" d="M26.8346 18.3355V20.0022H30.168V18.3355C30.168 13.7408 26.4294 10.0022 21.8346 10.0022H20.168V13.3355H21.8346C24.5918 13.3355 26.8346 15.5784 26.8346 18.3355Z" fill="white"/>
</g>
</g>
<defs>
<clipPath id="clip0_207_1500">
<rect width="40" height="40" fill="white" transform="translate(0.167969 0.00219727)"/>
</clipPath>
</defs>
</svg>
