<svg width="64" height="64" viewBox="0 0 64 64" fill="none" xmlns="http://www.w3.org/2000/svg">
<g clip-path="url(#clip0_207_1420)">
<path d="M1.06834 29.8688C0.856409 29.8693 0.649419 29.9328 0.473769 30.0514C0.298119 30.17 0.16177 30.3382 0.0821165 30.5346C0.00246282 30.731 -0.0168854 30.9466 0.02654 31.1541C0.0699653 31.3615 0.174196 31.5513 0.325935 31.6992L21.6337 53.007C21.7304 53.1151 21.8481 53.2024 21.9797 53.2635C22.1113 53.3246 22.254 53.3583 22.3991 53.3623C22.5441 53.3664 22.6885 53.3408 22.8233 53.2872C22.9581 53.2335 23.0806 53.1529 23.1832 53.0503C23.2858 52.9477 23.3664 52.8253 23.42 52.6904C23.4736 52.5556 23.4992 52.4113 23.4952 52.2662C23.4911 52.1212 23.4575 51.9785 23.3964 51.8469C23.3353 51.7153 23.248 51.5975 23.1398 51.5008L1.83207 30.1931C1.73238 30.0902 1.61301 30.0085 1.48106 29.9528C1.34911 29.8971 1.2073 29.8685 1.06407 29.8688H1.06834ZM62.9137 10.6688C62.6363 10.6774 62.3718 10.7904 62.1777 10.9888L25.9494 47.2128C24.9041 48.2155 26.4529 49.7664 27.4577 48.7211L63.6859 12.4971C64.3771 11.8187 63.8523 10.6688 62.9137 10.6688Z" fill="white"/>
</g>
<defs>
<clipPath id="clip0_207_1420">
<rect width="64" height="64" fill="white" transform="translate(0 0.00219727)"/>
</clipPath>
</defs>
</svg>
