<svg width="64" height="64" viewBox="0 0 64 64" fill="none" xmlns="http://www.w3.org/2000/svg">
<g clip-path="url(#clip0_207_1429)">
<path d="M30.9333 21.3355C25.6427 21.3355 21.3333 25.6449 21.3333 30.9355C21.3333 36.2262 25.6427 40.5355 30.9333 40.5355C36.224 40.5355 40.5333 36.2262 40.5333 30.9355C40.5333 25.6449 36.224 21.3355 30.9333 21.3355ZM30.9333 23.4689C35.072 23.4689 38.4 26.7969 38.4 30.9355C38.4 35.0742 35.072 38.4022 30.9333 38.4022C26.7947 38.4022 23.4667 35.0742 23.4667 30.9355C23.4667 26.7969 26.7947 23.4689 30.9333 23.4689ZM30.9333 0.00219727C30.3424 0.00219727 29.8667 0.477931 29.8667 1.06886V4.3222C16.0064 4.87686 4.87253 16.0086 4.32 29.8689H1.06667C0.475733 29.8689 0 30.3446 0 30.9355C0 31.5265 0.475733 32.0022 1.06667 32.0022H4.32C4.87467 45.8625 16.0064 56.9963 29.8667 57.5489V60.8022C29.8667 61.3931 30.3424 61.8689 30.9333 61.8689C31.5243 61.8689 32 61.3931 32 60.8022V57.5489C45.8603 56.9942 56.9941 45.8625 57.5467 32.0022H60.8C61.3909 32.0022 61.8667 31.5265 61.8667 30.9355C61.8667 30.3446 61.3909 29.8689 60.8 29.8689H57.5467C56.992 16.0086 45.8603 4.87473 32 4.3222V1.06886C32 0.477931 31.5243 0.00219727 30.9333 0.00219727ZM29.8667 6.45553V9.6022C29.8667 10.1931 30.3424 10.6689 30.9333 10.6689C31.5243 10.6689 32 10.1931 32 9.6022V6.45553C44.7061 6.99953 54.8693 17.1649 55.4133 29.8689H52.2667C51.6757 29.8689 51.2 30.3446 51.2 30.9355C51.2 31.5265 51.6757 32.0022 52.2667 32.0022H55.4133C54.8693 44.7083 44.704 54.8715 32 55.4155V52.2689C32 51.6779 31.5243 51.2022 30.9333 51.2022C30.3424 51.2022 29.8667 51.6779 29.8667 52.2689V55.4155C17.1605 54.8715 6.99733 44.7062 6.45333 32.0022H9.6C10.1909 32.0022 10.6667 31.5265 10.6667 30.9355C10.6667 30.3446 10.1909 29.8689 9.6 29.8689H6.45333C6.99733 17.1627 17.1627 6.99953 29.8667 6.45553Z" fill="white"/>
</g>
<defs>
<clipPath id="clip0_207_1429">
<rect width="64" height="64" fill="white" transform="translate(0 0.00219727)"/>
</clipPath>
</defs>
</svg>
