<svg width="32" height="32" viewBox="0 0 32 32" fill="none" xmlns="http://www.w3.org/2000/svg">
<path d="M23.9985 15.6667C23.8672 15.6673 23.7369 15.6417 23.6156 15.5913C23.4942 15.5409 23.3841 15.4668 23.2918 15.3733L15.9985 8.08001L8.70517 15.3733C8.51559 15.55 8.26487 15.6461 8.00581 15.6416C7.74674 15.6371 7.49955 15.532 7.31634 15.3488C7.13311 15.1656 7.02817 14.9184 7.02359 14.6593C7.01903 14.4003 7.11519 14.1496 7.29183 13.96L15.2918 5.96001C15.4793 5.77275 15.7334 5.66756 15.9985 5.66756C16.2634 5.66756 16.5177 5.77275 16.7052 5.96001L24.7052 13.96C24.8925 14.1475 24.9976 14.4017 24.9976 14.6667C24.9976 14.9317 24.8925 15.1859 24.7052 15.3733C24.6129 15.4668 24.5028 15.5409 24.3814 15.5913C24.2601 15.6417 24.1298 15.6673 23.9985 15.6667Z" fill="white"/>
<path d="M16 26.3333C15.7359 26.3299 15.4835 26.2235 15.2967 26.0367C15.1099 25.8499 15.0035 25.5975 15 25.3333V6.66667C15 6.40145 15.1053 6.14709 15.2929 5.95956C15.4804 5.77203 15.7348 5.66667 16 5.66667C16.2652 5.66667 16.5196 5.77203 16.7071 5.95956C16.8947 6.14709 17 6.40145 17 6.66667V25.3333C16.9965 25.5975 16.8901 25.8499 16.7033 26.0367C16.5165 26.2235 16.2641 26.3299 16 26.3333Z" fill="white"/>
</svg>
